# xmcd
#
# Track frame offsets: 
#        150
#        13320
#        25111
#        44325
#        60786
#        77702
#        97282
#        112233
#        127077
#        146220
#        159045
#        171381
#
# Disc length: 2487 seconds
#
# Revision: 0
# Processed by: cddbd v1.5.2PL0 Copyright (c) Steve Scherf et al.
# Submitted via: ExactAudioCopy v1.3
#
DISCID=a509b50c
DTITLE=Melody Pool - Melody Pool - The Hurting Scene
DYEAR=2013
DGENRE=Country
TTITLE0=The Hurting Scene
TTITLE1=Open Book
TTITLE2=Somebody You've Never Met Before
TTITLE3=All Of The Love
TTITLE4=Xavier
TTITLE5=Henry
TTITLE6=On The 'Morrow
TTITLE7=Lion On The Loose
TTITLE8=Reckless Road
TTITLE9=Substitute
TTITLE10=Royal Queen (Mary)
TTITLE11=Prettly Little End
EXTD=
EXTT0=
EXTT1=
EXTT2=
EXTT3=
EXTT4=
EXTT5=
EXTT6=
EXTT7=
EXTT8=
EXTT9=
EXTT10=
EXTT11=
PLAYORDER=
